<svg width="611" height="265" viewBox="0 0 611 265" fill="none" xmlns="http://www.w3.org/2000/svg">
<path d="M36.5641 57.7825C30.6341 81.7104 25.3284 102.829 24.8082 104.598L23.8719 108.031H14.6128H5.24976V113.753V119.475H109.284H213.318V113.753V108.135L203.747 107.823L194.176 107.511L182.94 62.256C176.698 37.3918 171.497 16.4809 171.185 15.7526C170.872 14.8163 168.896 15.1284 163.694 16.897C152.458 20.7463 130.507 25.6359 119.375 26.8843C103.978 28.5488 87.2288 26.2601 62.4686 19.0817C55.9145 17.2091 49.7765 15.3365 48.9442 15.0244C47.6958 14.5042 45.407 22.0987 36.5641 57.7825Z" fill="#008080"/>
<path d="M27.3051 156.719C15.133 161.089 5.66592 170.764 1.60858 182.936C-1.20034 191.571 -0.264035 203.639 3.89734 212.17C8.16275 220.7 14.3008 226.838 22.9356 231.104C29.1777 234.225 30.4261 234.433 40.1013 234.433C50.1926 234.433 50.7128 234.329 57.9952 230.376C67.0462 225.59 71.9358 220.388 76.3052 211.129C79.2182 205.095 79.6343 203.119 79.6343 194.692C79.7384 183.352 80.7787 181.687 91.0781 176.382C97.0081 173.261 97.9444 173.053 108.764 173.053C119.584 173.053 120.624 173.261 127.074 176.382C137.79 181.687 138.726 183.144 138.83 194.692C138.934 203.743 139.246 204.887 142.887 212.274C147.361 221.325 153.083 227.046 162.238 231.52C167.439 234.121 169.208 234.433 178.467 234.433C188.142 234.433 189.391 234.225 195.737 231.104C204.059 227.046 211.342 219.556 215.191 211.233C217.688 206.031 218 204.055 218 194.9C218 185.745 217.688 183.768 215.191 178.566C211.342 170.244 204.059 162.753 195.737 158.696C189.391 155.575 188.142 155.367 178.467 155.367C169.104 155.367 167.439 155.679 161.821 158.384C158.18 160.152 153.083 164.002 149.649 167.435L143.719 173.469L138.518 169.932C128.739 163.377 122.705 161.713 109.284 161.713C95.8637 161.713 89.8297 163.377 80.0505 169.932L74.8487 173.469L68.9188 167.435C60.492 159.008 53.4177 155.783 41.8699 155.159C34.7955 154.847 31.5705 155.263 27.3051 156.719Z" fill="#008080"/>
<path d="M251.432 102L235.752 15.6H259.24L269.928 88.752H268.648L283.112 15.6H311.592L326.12 88.752H324.84L335.976 15.6H359.4L343.336 102H310.056L297 28.72H297.768L284.584 102H251.432ZM403.679 102.768C389.343 102.768 379.295 99.312 373.535 92.4C367.818 85.4453 364.959 75.9947 364.959 64.048C364.959 51.8027 367.839 42.3093 373.599 35.568C379.359 28.784 389.258 25.392 403.295 25.392C417.674 25.392 427.615 28.8267 433.119 35.696C438.666 42.5653 441.439 51.9947 441.439 63.984C441.439 66.3733 441.29 68.5067 440.991 70.384H383.775V57.392H420.895L420.127 59.312C420.127 52.016 418.634 46.8533 415.647 43.824C412.703 40.7947 408.586 39.28 403.295 39.28C398.09 39.28 393.866 40.9227 390.623 44.208C387.38 47.4933 385.759 54.1067 385.759 64.048C385.759 73.776 387.359 80.3467 390.559 83.76C393.802 87.1733 398.175 88.88 403.679 88.88V102.768ZM403.679 88.88C406.879 88.88 409.524 88.4533 411.615 87.6C413.706 86.7467 415.37 85.3173 416.607 83.312C417.887 81.3067 418.975 78.9387 419.871 76.208L439.135 81.648C438.196 86.64 436.148 90.672 432.991 93.744C429.876 96.816 426.1 99.0987 421.663 100.592C417.268 102.043 411.274 102.768 403.679 102.768V88.88ZM452.004 102V1.52H473.572V90.8L471.652 102H452.004ZM497.572 102.512C488.527 102.512 480.655 100.421 473.956 96.24C467.3 92.0587 463.972 87.408 463.972 82.288L473.508 72.88C473.508 77.1467 475.151 80.7093 478.436 83.568C481.721 86.384 485.604 87.792 490.084 87.792C494.905 87.792 498.617 86.2133 501.22 83.056C503.823 79.8987 505.124 73.5413 505.124 63.984C505.124 54.5547 503.823 48.24 501.22 45.04C498.617 41.84 494.905 40.24 490.084 40.24C485.604 40.24 481.721 41.6907 478.436 44.592C475.151 47.4507 473.508 50.9493 473.508 55.088L463.972 45.808C463.972 40.688 467.3 36.0373 473.956 31.856C480.655 27.632 488.527 25.52 497.572 25.52C507.897 25.52 515.364 28.9333 519.972 35.76C524.58 42.544 526.884 51.9307 526.884 63.92C526.884 75.8667 524.58 85.296 519.972 92.208C515.364 99.0773 507.897 102.512 497.572 102.512ZM571.174 102.96C557.051 102.96 547.665 100.187 543.014 94.64C538.406 89.0933 536.102 81.776 536.102 72.688H557.606C557.606 79.5573 558.779 83.9093 561.126 85.744C563.473 87.536 566.886 88.432 571.366 88.432C575.761 88.432 579.067 87.6 581.286 85.936C583.547 84.2293 584.678 80.432 584.678 74.544C584.678 71.216 583.441 68.912 580.966 67.632C578.491 66.352 573.99 65.6907 567.462 65.648V52.208C573.99 52.1227 578.491 51.3973 580.966 50.032C583.441 48.6667 584.678 46.3413 584.678 43.056C584.678 37.2107 583.547 33.4773 581.286 31.856C579.025 30.2347 575.718 29.424 571.366 29.424C566.929 29.424 563.515 30.3627 561.126 32.24C558.779 34.0747 557.606 38.7253 557.606 46.192H536.102C536.102 36.848 538.427 29.296 543.078 23.536C547.771 17.776 557.158 14.896 571.238 14.896C585.83 14.896 595.281 17.264 599.59 22C603.942 26.6933 606.118 32.5813 606.118 39.664C606.118 45.04 604.582 49.4987 601.51 53.04C598.438 56.5387 593.467 58.3947 586.598 58.608C593.51 58.864 598.481 60.6773 601.51 64.048C604.582 67.376 606.118 71.728 606.118 77.104C606.118 84.4853 603.963 90.6507 599.654 95.6C595.345 100.507 585.851 102.96 571.174 102.96ZM275.688 234.512C260.413 234.512 250.088 231.76 244.712 226.256C239.336 220.752 236.648 212.944 236.648 202.832H258.472C258.472 210.213 260.029 214.907 263.144 216.912C266.259 218.875 270.397 219.856 275.56 219.856C280.68 219.856 284.797 219.067 287.912 217.488C291.069 215.909 292.648 213.499 292.648 210.256C292.648 206.459 290.493 203.856 286.184 202.448C281.917 201.04 276.029 199.589 268.52 198.096C256.616 195.536 248.339 192.635 243.688 189.392C239.037 186.149 236.712 180.837 236.712 173.456C236.712 166.16 239.443 159.909 244.904 154.704C250.408 149.499 260.541 146.896 275.304 146.896C290.195 146.896 300.349 149.733 305.768 155.408C311.229 161.04 313.96 168.635 313.96 178.192H292.2C292.2 170.981 290.579 166.416 287.336 164.496C284.093 162.533 279.997 161.552 275.048 161.552C269.843 161.552 265.661 162.384 262.504 164.048C259.347 165.669 257.768 167.973 257.768 170.96C257.768 174.971 259.944 177.68 264.296 179.088C268.691 180.453 274.6 181.904 282.024 183.44C294.312 185.957 302.717 188.731 307.24 191.76C311.805 194.747 314.088 199.909 314.088 207.248C314.088 214.8 311.421 221.243 306.088 226.576C300.755 231.867 290.621 234.512 275.688 234.512ZM339.59 234L323.078 158.16H345.35L355.27 221.072H354.63L369.222 158.16H385.03L368.454 234H339.59ZM391.174 234L374.534 158.16H390.726L405.126 220.944H404.486L413.958 158.16H436.23L419.782 234H391.174ZM471.286 234.832C468.299 234.832 465.355 234.661 462.454 234.32C459.595 233.979 456.907 233.339 454.39 232.4C451.873 231.419 449.654 230.053 447.734 228.304C445.814 226.555 444.299 224.293 443.19 221.52C442.123 218.747 441.59 215.355 441.59 211.344C441.59 207.461 442.123 204.197 443.19 201.552C444.299 198.864 445.793 196.667 447.67 194.96C449.547 193.253 451.723 191.931 454.198 190.992C456.673 190.053 459.318 189.413 462.134 189.072C464.95 188.688 467.809 188.496 470.71 188.496H494.646V185.552C494.646 182.096 493.963 179.365 492.598 177.36C491.275 175.355 489.441 173.947 487.094 173.136C484.79 172.283 482.187 171.856 479.286 171.856C476.641 171.856 474.23 172.261 472.054 173.072C469.878 173.883 468.043 175.205 466.55 177.04C465.099 178.875 464.075 181.328 463.478 184.4L442.422 178.512C443.19 174.715 444.598 171.493 446.646 168.848C448.737 166.16 451.382 163.984 454.582 162.32C457.825 160.613 461.515 159.376 465.654 158.608C469.835 157.797 474.358 157.392 479.222 157.392C486.859 157.392 493.451 158.309 498.998 160.144C504.545 161.979 508.811 165.029 511.798 169.296C514.785 173.563 516.278 179.365 516.278 186.704V234H498.358L496.502 225.296C495.99 226.448 495.03 227.6 493.622 228.752C492.214 229.861 490.401 230.885 488.182 231.824C486.006 232.72 483.489 233.445 480.63 234C477.814 234.555 474.699 234.832 471.286 234.832ZM476.15 221.328C478.241 221.328 480.31 221.136 482.358 220.752C484.449 220.368 486.347 219.813 488.054 219.088C489.803 218.363 491.254 217.509 492.406 216.528C493.558 215.504 494.305 214.395 494.646 213.2L495.158 200.4H475.766C474.059 200.4 472.459 200.528 470.966 200.784C469.473 200.997 468.15 201.467 466.998 202.192C465.889 202.917 465.014 203.963 464.374 205.328C463.734 206.693 463.414 208.485 463.414 210.704C463.414 212.965 463.755 214.8 464.438 216.208C465.163 217.573 466.123 218.64 467.318 219.408C468.555 220.133 469.921 220.645 471.414 220.944C472.95 221.2 474.529 221.328 476.15 221.328ZM563.451 264.016C554.235 264.016 546.256 262.032 539.515 258.064C532.774 254.139 528.976 247.355 528.123 237.712H549.115C549.371 240.656 550.139 243.088 551.419 245.008C552.742 246.928 554.491 248.293 556.667 249.104C558.886 249.957 561.382 250.384 564.155 250.384C568.806 250.384 572.56 249.296 575.419 247.12C578.278 244.944 579.707 239.952 579.707 232.144V173.072L585.531 158.16H601.339V229.904C601.339 238.736 599.568 245.627 596.027 250.576C592.486 255.568 588.134 259.045 582.971 261.008C577.808 263.013 571.302 264.016 563.451 264.016ZM555.963 234.512C545.68 234.512 538.171 231.077 533.435 224.208C528.699 217.339 526.331 207.909 526.331 195.92C526.331 183.888 528.656 174.48 533.307 167.696C537.958 160.912 545.424 157.52 555.707 157.52C564.795 157.52 572.646 159.696 579.259 164.048C585.915 168.4 589.243 173.136 589.243 178.256L579.707 187.088C579.707 182.949 578.064 179.451 574.779 176.592C571.536 173.691 567.696 172.24 563.259 172.24C558.438 172.24 554.704 173.84 552.059 177.04C549.414 180.197 548.091 186.512 548.091 195.984C548.091 205.541 549.414 211.899 552.059 215.056C554.704 218.213 558.438 219.792 563.259 219.792C567.696 219.792 571.536 218.363 574.779 215.504C578.064 212.645 579.707 209.104 579.707 204.88L589.243 214.288C589.243 219.451 585.958 224.123 579.387 228.304C572.859 232.443 565.051 234.512 555.963 234.512Z" fill="#008080"/>
</svg>
